<svg viewBox="0 0 300 800" xmlns="http://www.w3.org/2000/svg">
  <g fill="none" stroke="#4a3b34" stroke-width="2.5" stroke-linecap="round" stroke-linejoin="round">
    
    <!-- Head -->
    <path d="M160 180
             C150 170, 130 170, 120 185
             C110 200, 120 220, 140 225
             C155 230, 175 215, 170 195
             C168 188, 165 183, 160 180" />

    <!-- Hair -->
    <path d="M120 185
             C110 190, 110 210, 120 230" />

    <!-- Neck -->
    <path d="M140 225 C140 240, 135 250, 130 260" />

    <!-- Upper body -->
    <path d="M130 260
             C120 300, 120 350, 140 400" />

    <!-- Back -->
    <path d="M160 240
             C180 300, 190 380, 170 430" />

    <!-- Arms -->
    <path d="M150 150
             C170 120, 200 90, 220 80" />
    <path d="M150 150
             C160 120, 180 90, 200 60" />

    <!-- Waist / skirt -->
    <path d="M140 400
             C160 390, 180 390, 200 400" />

    <!-- Skirt bottom -->
    <path d="M140 420
             C160 430, 180 430, 200 420" />

    <!-- Left leg -->
    <path d="M150 430
             C140 500, 130 600, 110 700" />

    <!-- Right leg -->
    <path d="M180 430
             C190 520, 200 620, 190 700" />

    <!-- Foot -->
    <path d="M100 700
             C110 720, 140 720, 150 700" />

    <path d="M180 700
             C200 710, 220 705, 230 690" />

  </g>
</svg>